<svg xmlns="http://www.w3.org/2000/svg" viewBox="0 0 1333.32 791.2"><defs><style>.cls-1{fill:#f5a9a4;}.cls-2{fill:#eeaa6e;}.cls-3{fill:#b4caf5;}.cls-4{fill:#9cb0d9;}.cls-5{fill:#f2dfa7;}.cls-6,.cls-7{fill:#f2d8c2;}.cls-7{stroke:#f2d8c2;}.cls-7,.cls-8{stroke-miterlimit:10;}.cls-8{fill:none;stroke:#247524;}</style></defs><g id="Lag_3" data-name="Lag 3"><path class="cls-1" d="M835.78,383c5.42-.43,16.55,3.09,28.58,7.38,14,5,30.3,13.59,41,18,10.38,4.3,30.65,3,38-1,8.21-4.47,15-14,14-19-1.19-5.91-4.68-13.06-11-17-8.52-5.28-22.73-5.94-35-6.26C891.3,364.62,827.3,383.68,835.78,383Z" transform="translate(-35.63 -30.21)"/><path class="cls-2" d="M1144.36,379.4c-5,0,5-1.28,14-5a97.76,97.76,0,0,0,14-7c12.45-7.36,25-8.56,30-9a80.28,80.28,0,0,1,25,2,71.48,71.48,0,0,1,18,6c4.89,2.47,5.65,3.65,14,9a187.29,187.29,0,0,0,17,10c9.27,4.74,15.34,7.84,24,9,6.45.87,16,1,12,1a61.8,61.8,0,0,0-11,3c-6,2.08-10.21,4.82-15,8-8,5.31-7.63,6.54-13,10a50.29,50.29,0,0,1-22,8c-8.88.91-15.63-1.14-25-4a92,92,0,0,1-17-7c-5.94-3.22-6-4.15-15-10a216.61,216.61,0,0,0-19-11,142.78,142.78,0,0,0-18-8C1149.24,381.54,1145.72,379.4,1144.36,379.4Z" transform="translate(-35.63 -30.21)"/><path class="cls-3" d="M926.36,247.4c18.33-2.13,19-1.93,68-13,32.44-7.33,73.07-14.28,97-27,60-31.87,70-68,61.62-95.21-5.67-18.4-40-35.19-74.62-27.79-3.63.78-7.56,3-14,3-7.18,0-17-2.32-22-2-14.74,1-20.91,4-34,11-14.74,7.83-23.32,35.13-26,56-1.52,11.74,2.51,17.48-1,26-7,17-15.15,26.41-22,36C944.36,235.4,923.43,247.75,926.36,247.4Z" transform="translate(-35.63 -30.21)"/><path class="cls-1" d="M1105.36,673.4h0a30.74,30.74,0,0,0-20.12-19.65l-5-1.53a72.67,72.67,0,0,0-12-2.61l-23.54-3.07c-25.69-3.36-48.43-5.55-68.33-22.14l-17-14c-15.36-12.79-23.19-34.13-29.18-53.2l-9.61-30.6a121.44,121.44,0,0,0-28.19-44.17l-16-16,26.83,5q5.16,1,10.4,1.43l89.62,8c5.94.68,13.57,1.71,21.43,3.09a142.34,142.34,0,0,1,46.91,17.3l8.81,5.13c19,13,30,23.57,39.15,41.31l2.85,5.69c11,24,9.08,51.9.29,76.75Z" transform="translate(-35.63 -30.21)"/><path class="cls-2" d="M652.36,385.4c-10.26-7.56-20.86-8.94-29-10a79.8,79.8,0,0,0-48,9,60.43,60.43,0,0,0-13,9,56.2,56.2,0,0,0-16,26,59.25,59.25,0,0,0-2,15c-.27,7.64-.51,14.66,3,22,2.47,5.18,5.64,8.09,11,13a73.62,73.62,0,0,0,19,13c10.91,5.15,20.17,6.1,29,7,6.87.71,14.3,1.47,24,0,9-1.36,20.3-3.07,30-12,7.49-6.89,10.49-14.86,12-19,3.52-9.68,3.26-17.83,3-24a69.13,69.13,0,0,0-5-24C667.92,404.45,663.47,393.61,652.36,385.4Z" transform="translate(-35.63 -30.21)"/><path class="cls-1" d="M158.36,92.4c-9.41-1.7-17.07-.82-32,1-16.83,2.06-25.24,3.09-34,7-8.38,3.75-14.07,8.17-19,12-8.45,6.57-13.42,12.29-21,21-9.55,11-14.35,16.61-16,24-1.17,5.21-.74,9.17,0,16a84.78,84.78,0,0,0,8,28,70.47,70.47,0,0,0,18,24c8.45,7.16,16.37,10.14,24,13a107.08,107.08,0,0,0,39,7c8.31-.18,17.54-2.45,36-7,14.47-3.56,21.84-5.41,28-9,12.69-7.39,19.85-17.46,23-22a70.05,70.05,0,0,0,10-20c2.46-8,2.69-14.1,3-22,.52-13.57.87-22.71-4-33a51.09,51.09,0,0,0-10-14c-4-4-8-6.33-16-11a127.81,127.81,0,0,0-20-10A94.23,94.23,0,0,0,158.36,92.4Z" transform="translate(-35.63 -30.21)"/><path class="cls-4" d="M208.36,701.4h0c9.28-8.94,3-4,11-14h0c.89-4.33,6.16-13.76,6-18l2-28c-1.06-26.67-8.39-50.23,12-76l15-16c15.72-19.87,50.81-32.31,78.27-45.2l30.73-16.8c17.61-11.49,21.18-14.8,29.05-23.33a89.3,89.3,0,0,0,14.73-21.62l9.22-19.05,24,39c11,13,24.63,50.44,25,54l4,32c.39,6.13-5.19,37.19-8,45-6.64,18.44-5.55,13.7-10.25,30.41l-9.75,32.59c-15.17,23.57-27,25-52,28l-44,1c-39-5-35.25-3.36-75-3Z" transform="translate(-35.63 -30.21)"/><path class="cls-3" d="M280,429.24c-62.5,66.15-138.52,85.16-168.65,43.95-10-13.64-16.68-40.22-9-62.79,10.87-32,70.1-76.88,120-88,66.69-14.86,112.67-33.68,132-54,12.84-13.51,1-3-3,30C346.66,337.17,314.08,393.21,280,429.24Z" transform="translate(-35.63 -30.21)"/><path class="cls-5" d="M243.27,362.07c-21.44,10-41.52,8-44.72-4.08-1.07-4-.08-10.73,4-15.32,5.73-6.5,24.39-8,37.35-10.24,17.5-3,64.88-17.95,71.5-21,4.39-2-24,28-32,32C270.51,347.83,254.94,356.59,243.27,362.07Z" transform="translate(-35.63 -30.21)"/><path class="cls-4" d="M257.36,414.4c-36.08,41.24-82.49,57.43-90.32,46.76-3.73-5.09-3.43-17.29,3.81-29.34,10.28-17.1,54.27-38.7,81.51-53.42,37-20,52.79-34.43,66-47,8.78-8.35,3,0-7,15C298.36,365.9,278.36,390.4,257.36,414.4Z" transform="translate(-35.63 -30.21)"/><path class="cls-6" d="M131.36,400.4a18.76,18.76,0,0,0-12,7c-.76,1-4.88,6.19-4,13,.47,3.68,2.16,6.05,5,10,3.69,5.16,5.58,7.81,9,9,7.9,2.76,16.59-4.88,19-7,3.15-2.77,6.27-5.52,7-10,1.27-7.88-6-14.27-8-16C145.11,404.44,139.34,399.39,131.36,400.4Z" transform="translate(-35.63 -30.21)"/><path class="cls-1" d="M181.36,389.4c-1-3.41-5.35-4.56-7-5a9.57,9.57,0,0,0-6,0,8.57,8.57,0,0,0-5,5,7.23,7.23,0,0,0,0,5,7.65,7.65,0,0,0,4,4,10.23,10.23,0,0,0,9,0C179.45,396.75,182.39,392.88,181.36,389.4Z" transform="translate(-35.63 -30.21)"/><path class="cls-6" d="M451.36,547.4c2,9-2.57,24.7-4,35-6.66,47.82-38.2,97.38-66,79-6.68-4.41-16-20-11-30,7.72-15.44,26.42-37.6,33-49,15-26,21.27-105.9,20.29-112.33-.73-4.8,16.76,32.29,19.69,40.74C447.36,522.4,448.53,534.82,451.36,547.4Z" transform="translate(-35.63 -30.21)"/><path class="cls-1" d="M301.36,547.4a62.12,62.12,0,0,0-27,7,64.06,64.06,0,0,0-21,18,75.36,75.36,0,0,0-13,25,60,60,0,0,0-3,18c0,7-.08,16.28,6,24,4.78,6.09,11,8.27,16,10,14.79,5.17,28,1.26,32,0,10.07-3.14,16.59-8.42,21-12,4.15-3.37,8.82-8.95,18-20,12.25-14.74,13.26-17,14-19a37.91,37.91,0,0,0-9-40,38.46,38.46,0,0,0-20-11A37.25,37.25,0,0,0,301.36,547.4Z" transform="translate(-35.63 -30.21)"/><path class="cls-5" d="M253.36,599.4c-9.88,19.81-3.15,33,5.65,37.92,3.62,2,15.79,2.06,19.35-2.92,5-7,6-25,5-40a37.14,37.14,0,0,1,16-33c6-4-28,11.61-33,19C260.79,588.58,259.11,587.86,253.36,599.4Z" transform="translate(-35.63 -30.21)"/><path class="cls-5" d="M375.36,516.4c-5.23-2.48-10.16-4.83-16-3a17.35,17.35,0,0,0-9,7,14.51,14.51,0,0,0-3,9,13.74,13.74,0,0,0,4,9c4.3,4.29,10,4.08,12,4a20.1,20.1,0,0,0,12-5c1.69-1.53,3.12-4,6-9,1.87-3.25,2.09-4.09,2-5C383,520.05,378.73,518,375.36,516.4Z" transform="translate(-35.63 -30.21)"/><path class="cls-2" d="M410.36,630.4c-1.15-3.56-5.3-5.8-9-6a11.42,11.42,0,0,0-8,3c-.69.61-4.64,4-4,8,.26,1.67,1.51,3.12,4,6,1.5,1.75,2.25,2.62,3,3,3.57,1.86,9.29-.27,12-4a12.33,12.33,0,0,0,2-5A10,10,0,0,0,410.36,630.4Z" transform="translate(-35.63 -30.21)"/><path class="cls-3" d="M427.36,608.4c-.52,1.3-1.95,3.14-4,3a4,4,0,0,1-3-2,3.71,3.71,0,0,1,0-4c.91-1.16,2.51-1.07,4-1,1.19.07,2.37.13,3,1C428.12,606.47,427.52,608,427.36,608.4Z" transform="translate(-35.63 -30.21)"/><path class="cls-1" d="M682.36,641.4c15,27,9.88,83-26,83-5,0-14.76-2.65-22-9a43,43,0,0,1-11-16c-6.24-16.47,11-42,26-61,12.42-15.73-5.22-32.1-7.54-34.71-1.74-2,17.11,10.77,21.54,13.71C669.36,621.4,678.88,635.14,682.36,641.4Z" transform="translate(-35.63 -30.21)"/><path class="cls-3" d="M663.36,632.4a34.84,34.84,0,0,1,2,10c.1,2.55-.27,5-1,10-.59,4-1,5.14-1,8s-.05,4.76,1,7c.46,1,1.85,4,5,5a5.28,5.28,0,0,0,4,0c2.26-1.12,2.68-4.31,3-7,.23-2,.34-5-1-11a49.34,49.34,0,0,0-3-10C669.27,637.46,664.36,634.4,663.36,632.4Z" transform="translate(-35.63 -30.21)"/><path class="cls-5" d="M654.36,685.4a9.62,9.62,0,0,0-8-2,8.07,8.07,0,0,0-5,3c-1.8,2.5-1.29,5.39-1,7,.31,1.8,1,5.51,4,7,3.93,1.94,8.44-1.56,9-2,1-.75,4-3.15,4-7A8.46,8.46,0,0,0,654.36,685.4Z" transform="translate(-35.63 -30.21)"/><path class="cls-4" d="M775.36,654.4c-1.87-1.24,9.12,12.71,11,31,.69,6.8-.21,12.2-2,23-2.85,17.11-5.58,18.22-7,31a93.92,93.92,0,0,0,1,28c1.24,6.45,3.29,17,10,27,17.53,26.19,52.29,27,54,27a67.93,67.93,0,0,0,34-9c5.7-3.2,12.37-7,17-15,3.87-6.66,4.59-13.25,5-17a53.61,53.61,0,0,0-1-17c-1.36-6.17-3.59-11.27-8-19-7.26-12.7-11.61-20.32-20-29-11.4-11.77-21.16-19.18-30-24-6.5-3.53-7.9-4.16-21-11C806.68,674.32,781.36,658.4,775.36,654.4Z" transform="translate(-35.63 -30.21)"/><path class="cls-3" d="M851.36,732.4a47.71,47.71,0,0,0-19,0,42.16,42.16,0,0,0-17,7c-3.24,2.31-9.79,7-13,16a30.86,30.86,0,0,0-1,17c1.73,7.82,6,12.65,9,16a45.46,45.46,0,0,0,17,12,46.73,46.73,0,0,0,27,2c7.79-1.5,16-3.08,21-10,4.12-5.68,4.07-12.17,4-21-.05-5.07-.15-11-3-18-1.54-3.77-4.56-10.93-12-16C859.56,734.14,855.06,733.19,851.36,732.4Z" transform="translate(-35.63 -30.21)"/><path class="cls-5" d="M866.36,780.4c2-.56,2.89-3.2,3-5,0-.54.21-3.56-2-5s-4.53-.21-5,0a5.75,5.75,0,0,0-3,3,4.66,4.66,0,0,0,0,4c.53.92,1.35,1.28,3,2C864.33,780.27,865.31,780.7,866.36,780.4Z" transform="translate(-35.63 -30.21)"/><path class="cls-1" d="M801.36,683.4c-1.27,0,6.39,4.48,11,13,2.84,5.26,1.68,6.81,5,12a25.25,25.25,0,0,0,9,9c2.35,1.33,9.07,5.12,14,2a8.92,8.92,0,0,0,4-7c.11-3.19-1.8-5.45-4-8-3.09-3.55-6.31-5.38-11-8s-4.53-2-10-5c-4.25-2.33-5.39-3.27-9-5C808.2,685.38,804.36,683.4,801.36,683.4Z" transform="translate(-35.63 -30.21)"/><path class="cls-6" d="M798.36,702.4c-.65-.64.82,4.34,0,11-.28,2.21-.48,2-2,9-1.38,6.41-1.42,7.59-1,9,.71,2.42,2.85,5.84,6,6,3.36.18,5.68-3.49,6-4,2-3.23,1.49-6.79,1-10-.56-3.63-1.72-6.14-4-11C802.62,708.71,800.36,704.4,798.36,702.4Z" transform="translate(-35.63 -30.21)"/><path class="cls-2" d="M911.36,483.4c-2.84-.76,12.73,10.2,21.32,30.2,2.84,6.61,1.84,6.22,9.13,28.43,6.62,20.16,8.45,23.53,11.91,26.81,5.93,5.62,17.45,11.72,26.44,7.1,9.63-4.94,10.06-19,10.12-20.9.38-12.35-6.94-21.42-13.54-29.61-7.49-9.28-14.77-14.42-29-24.33C936.84,493.57,920.17,485.77,911.36,483.4Z" transform="translate(-35.63 -30.21)"/><path class="cls-5" d="M976.36,498.4c7.93,3.18,27.06.14,39.37,3.31s21.21,9.85,19.9,14.93-12.34,6.63-24.65,3.46S971.36,496.4,976.36,498.4Z" transform="translate(-35.63 -30.21)"/><path class="cls-7" d="M1106.36,644.4c-.61-5.4-.19-18.63-6-30-7.13-13.92-21-26.53-26-37-4.63-9.76-10.49-25.09-8-32,2.23-6.22,12.75-6.39,17-7,14-2,21.79,7.46,26.36,28.46C1114,586.42,1107.29,652.85,1106.36,644.4Z" transform="translate(-35.63 -30.21)"/><path class="cls-3" d="M1041.36,621.4c1.64-1.2,3.66-2.67,4-5,.25-1.75-.67-2.47-2-6-1.69-4.43-.84-4.88-2-7-2.17-3.92-6.7-5.3-9-6-2.86-.86-7.1-2.15-11,0-3.65,2-5,5.88-6,9a13.72,13.72,0,0,0-1,7,12.38,12.38,0,0,0,5,8c1.38.92,2.92,1.28,6,2a23.5,23.5,0,0,0,7,1A16.26,16.26,0,0,0,1041.36,621.4Z" transform="translate(-35.63 -30.21)"/><path class="cls-2" d="M1077.36,624.4c-1.74,1-4.81,1.74-7,0a5.76,5.76,0,0,1-2-4,6.77,6.77,0,0,1,1-4c.59-1.11,1.46-2.73,3-3,.78-.13,1.52.25,3,1,1.82.94,3.05,1.57,4,3a5,5,0,0,1,1,3C1080.2,622.75,1077.84,624.12,1077.36,624.4Z" transform="translate(-35.63 -30.21)"/><path class="cls-5" d="M946.36,383.4a4.17,4.17,0,0,0-4-2c-1.92.38-2.91,2.42-3,4a4.4,4.4,0,0,0,2,4,4,4,0,0,0,5-1A4.34,4.34,0,0,0,946.36,383.4Z" transform="translate(-35.63 -30.21)"/><path class="cls-6" d="M878.72,384.23c2.56.4,7.74,2.23,13.34,4.32,6.51,2.42,14.06,5.87,19,7.86s14.37,3.52,17.88,3.29c3.91-.25,7.23-1.77,6.83-3-.48-1.44-2-3.38-4.95-4.86-3.93-2-10.6-3.45-16.39-4.66C905.06,385.21,874.73,383.59,878.72,384.23Z" transform="translate(-35.63 -30.21)"/><path class="cls-3" d="M744.66,410.92c2.31,2.65,3.84,16.78,5.91,24.81,2.41,9.34,4.25,14.47,5.74,21.85,1.45,7.18,9.93,17.18,15.07,19.34,5.75,2.42,13.91,2,16.46-.58,3-3.06,5.87-7.83,5.75-12.74-.14-6.61-5.17-14.27-9.68-20.81C776.58,432.18,741,406.79,744.66,410.92Z" transform="translate(-35.63 -30.21)"/><path class="cls-4" d="M1065,268.81c2.44.8,12.18,2,18.18,1.4,7-.66,11.19-4.16,16.6-4.94,5.25-.75,14.41,2.1,17.34,4.71,3.28,2.92,5.34,7.94,4.32,10.06a12.16,12.16,0,0,1-6.94,6.36,36.63,36.63,0,0,1-17.11,1C1088.1,285.39,1061.15,267.56,1065,268.81Z" transform="translate(-35.63 -30.21)"/><path class="cls-6" d="M655.4,422.6c-1.73,2.66-8,11.8-15,17.8-6.71,5.75-18.47,10.62-25,13-6.35,2.32-13.62,4.08-16,9-2.69,5.55,3.32,13.17,7,15,4,2,10.87,1.66,15.52,1,6.25-.94,17.78-4.63,22.48-10C652,459.73,658.1,418.45,655.4,422.6Z" transform="translate(-35.63 -30.21)"/><path class="cls-5" d="M637.36,392.4a25.55,25.55,0,0,0-9-6c-5.58-2.14-10.32-1.59-15-1-6.14.79-15.55,2-20,9a10.73,10.73,0,0,0-2,7c.56,4.82,5.23,7.69,9,10,8.28,5.1,16.38,5.63,22,6a40,40,0,0,0,12-1c5.6-1.33,7.25-3,8-4a10.5,10.5,0,0,0,2-6C644.71,399.75,639.66,394.71,637.36,392.4Z" transform="translate(-35.63 -30.21)"/><path class="cls-3" d="M632.36,398.4a6.44,6.44,0,0,1-1,3,5,5,0,0,1-4,2c-2.48,0-4.86-2-5-4-.1-1.29.74-2.37,2-4a6.27,6.27,0,0,1,2-2c1.92-1,5-.68,6,1C632.92,395.32,632.73,396.36,632.36,398.4Z" transform="translate(-35.63 -30.21)"/><path class="cls-4" d="M626.36,460.4c-3.09-2.59-7.68-1.35-9-1-2,.53-6.62,1.79-7,5-.32,2.63,2.34,5.47,5,6,1.49.31,1.77-.37,8-3,3.44-1.45,4.68-1.81,5-3C628.84,462.54,626.54,460.56,626.36,460.4Z" transform="translate(-35.63 -30.21)"/><path class="cls-4" d="M832.36,250.4c-6.44-3.32-11.9-6-16-8-9.12-4.4-11.52-5.29-14-6a58.81,58.81,0,0,0-16-2c-7.6.06-21.24.17-31,9-1.75,1.59-3.84,4.39-8,10-4.81,6.47-7.21,9.71-9,14-1.37,3.28-3.87,9.27-3,17,.77,6.92,3.83,11.66,6,15a43.69,43.69,0,0,0,13,13c5.89,3.79,11.62,5.38,22,7,21.42,3.37,30.61,4.22,37,3a32.44,32.44,0,0,0,9-3,35.21,35.21,0,0,0,10-8,57.73,57.73,0,0,0,9-13c3.57-6.58,5.36-9.87,6-15a30.19,30.19,0,0,0-2-15c-1.07-2.48-2.38-4.32-5-8A118.79,118.79,0,0,0,832.36,250.4Z" transform="translate(-35.63 -30.21)"/><path class="cls-2" d="M798.36,308.4c12.7-2.88,10.16-2.73,14-6,2-1.66,3-3.44,5-7,2.43-4.26,4.82-8.46,5-14,.2-6.45-2.73-11.27-5-15-1.2-2-3-6-8-10-2.91-2.32-2-4-11-8s-12.16-2.74-15-3c-3.16-.28-5-1.46-14,1-11.44,3.15-10.78,4.31-13,6-6.07,4.62-6.73,13.29-7,17-.46,6.06,1,10.55,3,17s3.07,9.75,6,13c4.2,4.68,9.49,6.47,14,8a30.75,30.75,0,0,0,10,2C786,309.47,792.32,309.77,798.36,308.4Z" transform="translate(-35.63 -30.21)"/><path class="cls-1" d="M764.36,261.4c1.07,5.2,4.6,8.55,10,11,5.72,2.61,8.77,3.38,13.16,5.53s9.87,8.66,10.92,12c1.17,3.68.51,8.22-1.18,9.2-2,1.16-8.94,2.25-11.9,1.31-4-1.25-4.84-3.5-8-7-3.45-3.79-9.59-12.71-12-19C762.12,266,763.67,258.09,764.36,261.4Z" transform="translate(-35.63 -30.21)"/><path class="cls-2" d="M1003.36,156.4c2-5,6.94-6.35,14-11,8.21-5.4,14.58-8.42,21-13,6.17-4.4,14.78-13.66,15.59-19.14.89-6.13-1.46-13.52-4.51-15-3.6-1.73-8.78-2.75-13.38-1-6.19,2.39-17.64,13.72-22.7,20.1C1005.12,127.78,1001.27,161.63,1003.36,156.4Z" transform="translate(-35.63 -30.21)"/><path class="cls-5" d="M1014.29,211c5.17-2.13,38.08-16,47.07-25.63,5.44-5.81,16.66-20.74,20-35,3.06-13.1-1-24,2-30,5.17-10.34,9.72-10.51,18-13,10-3,28.09,8.55,31,13,4.76,7.3,2,36-4,43-6.73,7.85-25.86,19-37,25C1073.25,198.2,1006.2,214.35,1014.29,211Z" transform="translate(-35.63 -30.21)"/><path class="cls-1" d="M1109.36,122.4c-3.42-2.59-7.73-1.1-8-1-3.51,1.28-6.62,5-6,9,.58,3.77,4.21,5.61,5,6,3.19,1.62,8.38,2.1,11-1,2.36-2.79,1.28-6.91,1-8A8.71,8.71,0,0,0,1109.36,122.4Z" transform="translate(-35.63 -30.21)"/><path class="cls-1" d="M133.49,572.49c-2.38,2.7-9.59,5.56-17.65,8.35-9.38,3.24-21.77,5.34-29.26,7.46-7.27,2.05-16.3,12-17.69,17.7-1.55,6.42.27,15.28,3.42,17.88,3.72,3.08,9.21,5.88,14.34,5.43,6.9-.6,14.07-6.59,20.15-11.94C116.67,608.68,137.2,568.28,133.49,572.49Z" transform="translate(-35.63 -30.21)"/><path class="cls-2" d="M517.13,237.84c-1-2.72-5.4-7.07-10.47-11.63-5.91-5.3-14.34-10.71-19.2-14.6-4.71-3.78-14.74-13.56-14.1-18.21.71-5.18,6.95-9.07,10-10,3.59-1.09,10.38.07,14,2,4.86,2.6,10.31,5.42,13.21,11.23C515.27,206.08,518.62,242.09,517.13,237.84Z" transform="translate(-35.63 -30.21)"/><path class="cls-6" d="M154.36,111.4a43.84,43.84,0,0,0-22-6c-8.52,0-14.47,2.72-24,7-6.53,2.94-11.51,5.18-17,10-5.92,5.2-9.07,10.44-13,17-3.17,5.28-6,10-8,17-1.3,4.5-2.91,10.36-2,18a38.83,38.83,0,0,0,5,15,40.63,40.63,0,0,0,11,12,61.8,61.8,0,0,0,20,10,73,73,0,0,0,34,2c8.82-1.64,21.81-4.07,28-14,1.55-2.49.73-2.33,4-10,5.13-12,7.4-13,10-20,1.56-4.22,5.34-14.38,2-25-1.38-4.34-4.59-8.23-11-16C163.85,119.32,160.09,114.78,154.36,111.4Z" transform="translate(-35.63 -30.21)"/><path class="cls-5" d="M131.8,122.49c-1.87,3.07-4.16,13.4-4.44,21.91-.16,4.74-1.88,11.27,1,18,3.14,7.38,10.9,14.94,11,19,.18,7.56-1.93,11-7,14-5.68,3.38-26.42,2.29-31,0-4.32-2.15-16.92-11-18-16-1.47-6.77.68-16.61,4-24C92.74,143.41,134.74,117.7,131.8,122.49Z" transform="translate(-35.63 -30.21)"/><path class="cls-1" d="M1169.3,377.6a82,82,0,0,1,18.79,1.26c7,1.5,14.87,1.16,20.27,2.54,5.23,1.35,10.58,1.83,14,0,3.81-2,6.69-8,6-10-.82-2.29-1.76-3.65-5-5-4.37-1.8-11.95-.56-18-.27C1195.62,366.6,1165.2,378.15,1169.3,377.6Z" transform="translate(-35.63 -30.21)"/><path class="cls-5" d="M1183.48,385.93a59.71,59.71,0,0,0,9.26,2.78c3.58.69,7.34,2.15,10.12,2.6s5.35,1.18,6.79,2.39c1.61,1.35,2.28,3.88,1.72,4.43s-1.29.94-3,.84c-2.33-.13-5.86-1.85-8.74-3C1194.92,394.17,1181.55,385,1183.48,385.93Z" transform="translate(-35.63 -30.21)"/><path class="cls-6" d="M1232.36,400.4c-1.93,1.69-2.64,1.87-3,3-1,3,2.51,6.53,3,7a13.51,13.51,0,0,0,14,3c.87-.34,5.54-2.16,7-7,.16-.55,1.32-4.64-1-8-1.52-2.19-3.73-2.91-7-4-3-1-4.43-1.46-6-1C1236.67,394.19,1236.89,396.44,1232.36,400.4Z" transform="translate(-35.63 -30.21)"/><path class="cls-4" d="M1271.36,398.4a4,4,0,0,1-4-3,3.15,3.15,0,0,1,1-3c1.16-.91,2.74-.4,4,0s2.71.87,3,2C1275.75,396,1273.71,398.34,1271.36,398.4Z" transform="translate(-35.63 -30.21)"/></g><g id="Lag_2" data-name="Lag 2"><path class="cls-8" d="M335.17,377.34c-62.5,66.14-138.52,85.15-168.65,43.94-10-13.64-16.69-40.21-9-62.78,10.88-32,70.1-76.88,120-88,66.7-14.86,112.68-33.68,132-54,12.85-13.51,1-3-3,30C401.8,285.26,369.22,341.3,335.17,377.34Z" transform="translate(-35.63 -30.21)"/><path class="cls-8" d="M298.41,310.16c-21.43,10-41.52,8-44.72-4.08-1.06-4-.08-10.73,4-15.31,5.73-6.5,24.4-8,37.35-10.25,17.5-3,64.89-17.94,71.5-21,4.4-2.05-24,28-32,32C325.65,295.92,310.09,304.69,298.41,310.16Z" transform="translate(-35.63 -30.21)"/><path class="cls-8" d="M312.5,362.5c-36.08,41.23-82.49,57.43-90.31,46.76-3.74-5.1-3.44-17.29,3.8-29.34,10.28-17.11,54.28-38.7,81.51-53.42,37-20,52.79-34.44,66-47,8.78-8.36,3,0-7,15C353.5,314,333.5,338.5,312.5,362.5Z" transform="translate(-35.63 -30.21)"/><path class="cls-8" d="M186.5,348.5a18.72,18.72,0,0,0-12,7c-.75.95-4.88,6.18-4,13,.47,3.67,2.17,6,5,10,3.69,5.16,5.59,7.81,9,9,7.91,2.76,16.6-4.89,19-7,3.15-2.77,6.28-5.52,7-10,1.27-7.89-6-14.27-8-16C200.25,352.53,194.49,347.49,186.5,348.5Z" transform="translate(-35.63 -30.21)"/><path class="cls-8" d="M236.5,337.5c-1-3.42-5.34-4.56-7-5a9.42,9.42,0,0,0-6,0,8.56,8.56,0,0,0-5,5,7.28,7.28,0,0,0,0,5,7.73,7.73,0,0,0,4,4,10.31,10.31,0,0,0,9,0C234.59,344.85,237.54,341,236.5,337.5Z" transform="translate(-35.63 -30.21)"/><path class="cls-8" d="M506.5,495.5c2,9-2.57,24.7-4,35-6.66,47.82-38.2,97.37-66,79-6.68-4.41-16-20-11-30,7.72-15.44,26.43-37.61,33-49,15-26,21.27-105.91,20.29-112.34-.73-4.79,16.76,32.3,19.69,40.75C502.5,470.5,503.68,482.92,506.5,495.5Z" transform="translate(-35.63 -30.21)"/><path class="cls-8" d="M308.5,547.5c-9.88,19.81-3.14,33,5.65,37.92,3.62,2,15.8,2.05,19.35-2.92,5-7,6-25,5-40a37.15,37.15,0,0,1,16-33c6-4-28,11.6-33,19C315.94,536.68,314.26,536,308.5,547.5Z" transform="translate(-35.63 -30.21)"/><path class="cls-8" d="M356.5,495.5a62.12,62.12,0,0,0-27,7,64.06,64.06,0,0,0-21,18,75.25,75.25,0,0,0-13,25,60.26,60.26,0,0,0-3,18c0,7-.07,16.27,6,24,4.78,6.08,11,8.27,16,10,14.79,5.16,28,1.25,32,0,10.08-3.14,16.6-8.43,21-12,4.15-3.37,8.83-9,18-20,12.25-14.74,13.27-17,14-19a37.91,37.91,0,0,0-9-40,38.34,38.34,0,0,0-20-11A37.26,37.26,0,0,0,356.5,495.5Z" transform="translate(-35.63 -30.21)"/><path class="cls-8" d="M430.5,464.5c-5.23-2.49-10.15-4.83-16-3a17.34,17.34,0,0,0-9,7,14.54,14.54,0,0,0-3,9,13.82,13.82,0,0,0,4,9c4.31,4.29,10,4.07,12,4a20.15,20.15,0,0,0,12-5c1.69-1.54,3.13-4,6-9,1.88-3.25,2.09-4.09,2-5C438.16,468.15,433.87,466.11,430.5,464.5Z" transform="translate(-35.63 -30.21)"/><path class="cls-8" d="M465.5,578.5c-1.14-3.56-5.29-5.81-9-6a11.4,11.4,0,0,0-8,3c-.69.6-4.63,4-4,8,.27,1.67,1.51,3.11,4,6,1.5,1.74,2.25,2.61,3,3,3.58,1.85,9.3-.28,12-4a12.33,12.33,0,0,0,2-5A10,10,0,0,0,465.5,578.5Z" transform="translate(-35.63 -30.21)"/><path class="cls-8" d="M482.5,556.5c-.51,1.29-1.94,3.14-4,3a4.06,4.06,0,0,1-3-2,3.75,3.75,0,0,1,0-4c.92-1.16,2.52-1.08,4-1,1.2.06,2.37.12,3,1C483.26,554.57,482.67,556.08,482.5,556.5Z" transform="translate(-35.63 -30.21)"/><path class="cls-8" d="M737.5,589.5c15,27,9.89,83-26,83-5,0-14.76-2.66-22-9a43.31,43.31,0,0,1-11-16c-6.24-16.47,11-42,26-61,12.42-15.73-5.21-32.1-7.54-34.72-1.73-1.95,17.12,10.77,21.54,13.72C724.5,569.5,734,583.24,737.5,589.5Z" transform="translate(-35.63 -30.21)"/><path class="cls-8" d="M718.5,580.5a33.73,33.73,0,0,1,2,10c.11,2.54-.26,5-1,10-.59,3.94-1,5.14-1,8s0,4.76,1,7c.46,1,1.86,4,5,5a5.39,5.39,0,0,0,4,0c2.27-1.13,2.69-4.32,3-7,.23-2,.34-5-1-11a49.15,49.15,0,0,0-3-10C724.42,585.56,719.5,582.5,718.5,580.5Z" transform="translate(-35.63 -30.21)"/><path class="cls-8" d="M709.5,633.5a9.58,9.58,0,0,0-8-2,8,8,0,0,0-5,3c-1.79,2.5-1.28,5.38-1,7,.32,1.79,1,5.51,4,7,3.94,1.94,8.45-1.57,9-2,1-.75,4-3.15,4-7A8.37,8.37,0,0,0,709.5,633.5Z" transform="translate(-35.63 -30.21)"/><path class="cls-8" d="M830.5,602.5c-1.87-1.24,9.12,12.7,11,31,.7,6.8-.2,12.2-2,23-2.85,17.1-5.58,18.21-7,31a94.3,94.3,0,0,0,1,28c1.25,6.44,3.29,17,10,27,17.53,26.19,52.29,27,54,27a68,68,0,0,0,34-9c5.71-3.2,12.38-7,17-15,3.87-6.66,4.59-13.25,5-17a53.29,53.29,0,0,0-1-17c-1.35-6.17-3.58-11.27-8-19-7.25-12.7-11.61-20.33-20-29-11.39-11.78-21.15-19.18-30-24-6.49-3.53-7.9-4.17-21-11C861.82,622.41,836.5,606.5,830.5,602.5Z" transform="translate(-35.63 -30.21)"/><path class="cls-8" d="M906.5,680.5a47.7,47.7,0,0,0-19,0,42.07,42.07,0,0,0-17,7c-3.23,2.31-9.79,7-13,16a31,31,0,0,0-1,17c1.74,7.82,6,12.65,9,16a45.61,45.61,0,0,0,17,12,46.82,46.82,0,0,0,27,2c7.79-1.5,16-3.08,21-10,4.13-5.69,4.07-12.18,4-21,0-5.07-.15-11-3-18-1.54-3.78-4.55-10.93-12-16C914.71,682.24,910.2,681.28,906.5,680.5Z" transform="translate(-35.63 -30.21)"/><path class="cls-8" d="M921.5,728.5c2-.56,2.89-3.21,3-5,0-.55.21-3.57-2-5-2.06-1.33-4.52-.22-5,0a5.81,5.81,0,0,0-3,3,4.73,4.73,0,0,0,0,4c.54.92,1.36,1.28,3,2C919.47,728.37,920.46,728.8,921.5,728.5Z" transform="translate(-35.63 -30.21)"/><path class="cls-8" d="M856.5,631.5c-1.26,0,6.39,4.48,11,13,2.84,5.26,1.69,6.81,5,12a25.41,25.41,0,0,0,9,9c2.36,1.33,9.07,5.11,14,2a8.89,8.89,0,0,0,4-7c.11-3.19-1.79-5.46-4-8-3.08-3.55-6.3-5.38-11-8s-4.52-2-10-5c-4.25-2.33-5.39-3.28-9-5C863.35,633.47,859.5,631.5,856.5,631.5Z" transform="translate(-35.63 -30.21)"/><path class="cls-8" d="M853.5,650.5c-.64-.64.83,4.33,0,11-.27,2.2-.48,1.94-2,9-1.38,6.4-1.42,7.59-1,9,.71,2.42,2.86,5.83,6,6,3.37.18,5.68-3.49,6-4,2-3.23,1.49-6.79,1-10-.56-3.64-1.71-6.14-4-11C857.76,656.81,855.5,652.5,853.5,650.5Z" transform="translate(-35.63 -30.21)"/><path class="cls-8" d="M966.5,431.5c-2.84-.76,12.73,10.19,21.32,30.2,2.84,6.6,1.85,6.22,9.14,28.43,6.62,20.15,8.44,23.52,11.91,26.81,5.93,5.62,17.45,11.71,26.43,7.1,9.63-4.95,10.06-19,10.12-20.9.38-12.35-6.94-21.43-13.54-29.61-7.48-9.28-14.77-14.42-29-24.33C992,441.66,975.31,433.87,966.5,431.5Z" transform="translate(-35.63 -30.21)"/><path class="cls-8" d="M1031.5,446.5c7.93,3.17,27.07.13,39.37,3.3s21.21,9.86,19.9,14.94-12.34,6.63-24.64,3.46S1026.5,444.5,1031.5,446.5Z" transform="translate(-35.63 -30.21)"/><path class="cls-8" d="M1161.5,592.5c-.6-5.41-.18-18.64-6-30-7.13-13.92-21-26.54-26-37-4.62-9.76-10.48-25.09-8-32,2.23-6.22,12.76-6.39,17-7,14-2,21.79,7.46,26.37,28.45C1169.14,534.51,1162.44,601,1161.5,592.5Z" transform="translate(-35.63 -30.21)"/><path class="cls-8" d="M1096.5,569.5c1.65-1.2,3.66-2.68,4-5,.25-1.75-.66-2.48-2-6-1.68-4.44-.83-4.88-2-7-2.16-3.93-6.7-5.3-9-6-2.85-.86-7.09-2.15-11,0-3.64,2-5,5.87-6,9a13.81,13.81,0,0,0-1,7,12.4,12.4,0,0,0,5,8c1.38.92,2.92,1.28,6,2a23.88,23.88,0,0,0,7,1A16.41,16.41,0,0,0,1096.5,569.5Z" transform="translate(-35.63 -30.21)"/><path class="cls-8" d="M1132.5,572.5c-1.73,1-4.8,1.74-7,0a5.8,5.8,0,0,1-2-4,6.77,6.77,0,0,1,1-4c.6-1.12,1.47-2.74,3-3,.78-.14,1.52.24,3,1,1.82.93,3.06,1.57,4,3a4.81,4.81,0,0,1,1,3C1135.35,570.85,1133,572.22,1132.5,572.5Z" transform="translate(-35.63 -30.21)"/><path class="cls-8" d="M1001.5,331.5a4.14,4.14,0,0,0-4-2c-1.92.38-2.91,2.42-3,4,0,.18-.12,2.84,2,4a4,4,0,0,0,5-1A4.3,4.3,0,0,0,1001.5,331.5Z" transform="translate(-35.63 -30.21)"/><path class="cls-8" d="M890.92,331.11c5.43-.42,16.56,3.1,28.58,7.39,14,5,30.3,13.58,41,18,10.39,4.29,30.65,3,38-1,8.21-4.47,15-14,14-19-1.18-5.91-4.67-13.07-11-17-8.51-5.29-22.72-5.95-35-6.26C946.44,312.72,882.45,331.78,890.92,331.11Z" transform="translate(-35.63 -30.21)"/><path class="cls-8" d="M933.87,332.32c2.55.41,7.74,2.24,13.33,4.32,6.52,2.43,14.07,5.88,19,7.87,4.82,1.93,14.37,3.52,17.87,3.29,3.92-.25,7.24-1.78,6.83-3-.48-1.45-2-3.39-5-4.86-3.93-2-10.6-3.45-16.38-4.66C960.2,333.31,929.87,331.69,933.87,332.32Z" transform="translate(-35.63 -30.21)"/><path class="cls-8" d="M801.65,358.81c1.81,3.05,5.63,15.93,5.79,24.35a64,64,0,0,0,6.06,26.34c4,8,9,11,14,14,5.59,3.4,12.58,1.17,16-1,4-2.57,4.84-5,6-10,1.55-6.67-2.82-11.67-6-19C838.34,381.59,798.81,354.05,801.65,358.81Z" transform="translate(-35.63 -30.21)"/><path class="cls-8" d="M1120.11,216.9c2.45.8,12.18,2,18.18,1.41,7-.67,11.2-4.17,16.6-4.94,5.25-.75,14.42,2.09,17.35,4.71,3.27,2.92,5.33,7.93,4.32,10a12.13,12.13,0,0,1-6.94,6.36,36.54,36.54,0,0,1-17.12,1C1143.25,233.49,1116.29,215.66,1120.11,216.9Z" transform="translate(-35.63 -30.21)"/><path class="cls-8" d="M710.54,370.7c-1.73,2.65-8,11.8-15,17.8-6.7,5.75-18.47,10.62-25,13-6.34,2.32-13.62,4.08-16,9-2.68,5.55,3.33,13.16,7,15,4,2,10.88,1.66,15.52,1,6.25-.93,17.79-4.62,22.48-10C707.12,407.83,713.25,366.54,710.54,370.7Z" transform="translate(-35.63 -30.21)"/><path class="cls-8" d="M707.5,333.5c-10.26-7.57-20.86-8.94-29-10a79.8,79.8,0,0,0-48,9,60.92,60.92,0,0,0-13,9,56.08,56.08,0,0,0-16,26,59.66,59.66,0,0,0-2,15c-.26,7.64-.51,14.66,3,22,2.47,5.17,5.65,8.09,11,13a74.06,74.06,0,0,0,19,13c10.92,5.14,20.17,6.09,29,7,6.87.71,14.3,1.47,24,0,9-1.36,20.31-3.08,30-12a46.11,46.11,0,0,0,12-19c3.52-9.68,3.26-17.83,3-24a68.65,68.65,0,0,0-5-24C723.06,352.55,718.62,341.7,707.5,333.5Z" transform="translate(-35.63 -30.21)"/><path class="cls-8" d="M692.5,340.5a25.28,25.28,0,0,0-9-6c-5.57-2.14-10.31-1.6-15-1-6.14.78-15.54,2-20,9a10.79,10.79,0,0,0-2,7c.56,4.81,5.23,7.68,9,10,8.29,5.09,16.39,5.63,22,6a40.37,40.37,0,0,0,12-1c5.6-1.33,7.26-3.05,8-4a10.37,10.37,0,0,0,2-6C699.85,347.85,694.8,342.8,692.5,340.5Z" transform="translate(-35.63 -30.21)"/><path class="cls-8" d="M687.5,346.5a6.49,6.49,0,0,1-1,3,5.1,5.1,0,0,1-4,2c-2.47,0-4.85-2-5-4-.09-1.3.74-2.38,2-4a6.27,6.27,0,0,1,2-2c1.93-1,5-.68,6,1C688.06,343.41,687.87,344.45,687.5,346.5Z" transform="translate(-35.63 -30.21)"/><path class="cls-8" d="M681.5,408.5c-3.08-2.6-7.67-1.36-9-1-2,.53-6.61,1.78-7,5-.32,2.63,2.35,5.46,5,6,1.5.3,1.78-.37,8-3,3.44-1.46,4.69-1.81,5-3C684,410.64,681.69,408.66,681.5,408.5Z" transform="translate(-35.63 -30.21)"/><path class="cls-8" d="M887.5,198.5c-6.44-3.33-11.9-6-16-8-9.12-4.4-11.51-5.29-14-6a57.87,57.87,0,0,0-16-2c-7.6.06-21.23.16-31,9-1.75,1.58-3.83,4.39-8,10-4.8,6.47-7.21,9.7-9,14a32.88,32.88,0,0,0-3,17c.77,6.92,3.84,11.66,6,15a43.81,43.81,0,0,0,13,13c5.89,3.78,11.63,5.37,22,7,21.42,3.36,30.61,4.22,37,3a32.21,32.21,0,0,0,9-3,35.07,35.07,0,0,0,10-8,57.41,57.41,0,0,0,9-13c3.58-6.58,5.37-9.87,6-15a29.92,29.92,0,0,0-2-15c-1.06-2.48-2.37-4.32-5-8A115.22,115.22,0,0,0,887.5,198.5Z" transform="translate(-35.63 -30.21)"/><path class="cls-8" d="M853.5,256.5c12.71-2.88,10.16-2.73,14-6,2-1.67,3-3.45,5-7,2.43-4.27,4.83-8.47,5-14,.2-6.46-2.73-11.27-5-15-1.2-2-3-6-8-10-2.9-2.32-2-4-11-8s-12.16-2.75-15-3c-3.15-.28-5-1.47-14,1-11.44,3.14-10.78,4.31-13,6-6.07,4.62-6.72,13.28-7,17-.46,6.05,1,10.55,3,17s3.08,9.75,6,13c4.2,4.67,9.49,6.47,14,8a30.75,30.75,0,0,0,10,2C841.11,257.56,847.47,257.87,853.5,256.5Z" transform="translate(-35.63 -30.21)"/><path class="cls-8" d="M819.5,209.5c1.08,5.2,4.61,8.54,10,11,5.73,2.61,8.77,3.37,13.16,5.53s9.88,8.66,10.92,11.95c1.18,3.68.52,8.22-1.18,9.2-2,1.16-8.94,2.26-11.9,1.32-4-1.26-4.83-3.51-8-7-3.44-3.8-9.58-12.71-12-19C817.27,214.1,818.81,206.18,819.5,209.5Z" transform="translate(-35.63 -30.21)"/><path class="cls-8" d="M1058.5,104.5c2-5,6.94-6.36,14-11,8.22-5.41,14.59-8.43,21-13,6.18-4.4,14.79-13.67,15.59-19.15.9-6.13-1.45-13.52-4.5-15-3.61-1.74-8.79-2.75-13.39-1-6.19,2.39-17.63,13.71-22.7,20.1C1060.26,75.88,1056.41,109.72,1058.5,104.5Z" transform="translate(-35.63 -30.21)"/><path class="cls-8" d="M1069.43,159.12c5.18-2.13,38.09-16,47.07-25.62,5.45-5.81,16.66-20.75,20-35,3.07-13.11-1-24,2-30,5.17-10.35,9.72-10.52,18-13,10-3,28.09,8.55,31,13,4.76,7.29,2,36-4,43-6.73,7.85-25.86,19-37,25C1128.4,146.29,1061.35,162.45,1069.43,159.12Z" transform="translate(-35.63 -30.21)"/><path class="cls-8" d="M981.5,195.5c18.34-2.13,19-1.93,68-13,32.45-7.33,73.08-14.29,97-27,60-31.87,70-68,61.62-95.21-5.67-18.41-40-35.2-74.62-27.79-3.63.78-7.56,3-14,3-7.18,0-17-2.33-22-2-14.74,1-20.9,4-34,11-14.73,7.83-23.31,35.13-26,56-1.51,11.74,2.51,17.47-1,26-7,17-15.15,26.4-22,36C999.5,183.5,978.57,195.84,981.5,195.5Z" transform="translate(-35.63 -30.21)"/><path class="cls-8" d="M1164.5,70.5c-3.42-2.59-7.72-1.1-8-1-3.51,1.28-6.61,5-6,9,.58,3.76,4.21,5.6,5,6,3.19,1.62,8.38,2.09,11-1,2.37-2.8,1.28-6.92,1-8A8.68,8.68,0,0,0,1164.5,70.5Z" transform="translate(-35.63 -30.21)"/><path class="cls-8" d="M1160.5,621.5h0a30.75,30.75,0,0,0-20.11-19.65l-5-1.53a72.69,72.69,0,0,0-12-2.62l-23.54-3.07c-25.69-3.35-48.43-5.54-68.33-22.13l-17-14c-15.35-12.79-23.18-34.14-29.17-53.2l-9.61-30.6a121.44,121.44,0,0,0-28.19-44.17l-16-16,26.83,5q5.17,1,10.41,1.44l89.61,8c5.94.68,13.57,1.71,21.44,3.1a142,142,0,0,1,46.9,17.29l8.81,5.14c19,13,30,23.57,39.15,41.3l2.85,5.7c11,24,9.09,51.89.3,76.74Z" transform="translate(-35.63 -30.21)"/><path class="cls-8" d="M263.5,649.5h0c9.28-8.94,3-4,11-14h0c.89-4.33,6.17-13.77,6-18l2-28c-1.05-26.67-8.38-50.23,12-76l15-16c15.72-19.87,50.81-32.32,78.27-45.2l30.73-16.8c17.62-11.49,21.18-14.8,29.06-23.34a88.93,88.93,0,0,0,14.72-21.61l9.22-19.05,24,39c11,13,24.64,50.43,25,54l4,32c.39,6.13-5.19,37.19-8,45-6.63,18.43-5.55,13.7-10.25,30.4l-9.75,32.6c-15.17,23.56-27,25-52,28l-44,1c-39-5-35.25-3.36-75-3Z" transform="translate(-35.63 -30.21)"/><path class="cls-8" d="M188.63,520.59c-2.37,2.7-9.59,5.56-17.64,8.34-9.38,3.25-21.78,5.35-29.26,7.46-7.27,2.06-16.31,12-17.7,17.7-1.55,6.42.28,15.29,3.42,17.89,3.72,3.08,9.21,5.87,14.34,5.42,6.91-.6,14.07-6.59,20.15-11.93C171.82,556.78,192.34,516.37,188.63,520.59Z" transform="translate(-35.63 -30.21)"/><path class="cls-8" d="M572.27,185.93c-.95-2.72-5.39-7.06-10.47-11.62-5.9-5.31-14.34-10.72-19.19-14.61s-14.75-13.56-14.11-18.2c.72-5.19,7-9.08,10-10,3.6-1.09,10.39.07,14,2,4.86,2.6,10.32,5.41,13.21,11.23C570.42,154.18,573.76,190.18,572.27,185.93Z" transform="translate(-35.63 -30.21)"/><path class="cls-8" d="M187,70.59c-1.88,3.06-4.17,13.39-4.45,21.91-.16,4.74-1.87,11.26,1,18,3.14,7.37,10.9,14.93,11,19,.18,7.55-1.92,11-7,14-5.68,3.38-26.41,2.29-31,0-4.32-2.15-16.91-11-18-16-1.46-6.77.69-16.62,4-24C147.88,91.5,189.88,65.8,187,70.59Z" transform="translate(-35.63 -30.21)"/><path class="cls-8" d="M209.5,59.5a43.7,43.7,0,0,0-22-6c-8.51,0-14.46,2.71-24,7-6.52,2.93-11.5,5.17-17,10-5.92,5.2-9.06,10.44-13,17-3.17,5.28-6,10-8,17-1.29,4.5-2.91,10.35-2,18a39.07,39.07,0,0,0,5,15,41,41,0,0,0,11,12,61.93,61.93,0,0,0,20,10,73,73,0,0,0,34,2c8.82-1.65,21.81-4.07,28-14,1.55-2.49.74-2.34,4-10,5.13-12,7.4-13,10-20,1.57-4.22,5.35-14.38,2-25-1.37-4.35-4.58-8.23-11-16C219,67.41,215.24,62.87,209.5,59.5Z" transform="translate(-35.63 -30.21)"/><path class="cls-8" d="M213.5,40.5c-9.41-1.7-17.07-.83-32,1-16.82,2.06-25.23,3.09-34,7-8.38,3.74-14.07,8.16-19,12-8.45,6.57-13.42,12.28-21,21-9.54,11-14.35,16.61-16,24-1.16,5.21-.74,9.17,0,16a84.87,84.87,0,0,0,8,28,70.61,70.61,0,0,0,18,24c8.46,7.15,16.37,10.13,24,13a107.34,107.34,0,0,0,39,7c8.31-.19,17.54-2.46,36-7,14.48-3.56,21.84-5.42,28-9,12.69-7.39,19.85-17.47,23-22a70.07,70.07,0,0,0,10-20c2.46-8,2.7-14.1,3-22,.52-13.58.87-22.71-4-33a50.94,50.94,0,0,0-10-14c-4-4-8-6.34-16-11a126.51,126.51,0,0,0-20-10A92.37,92.37,0,0,0,213.5,40.5Z" transform="translate(-35.63 -30.21)"/><path class="cls-8" d="M1224.45,325.7a82.5,82.5,0,0,1,18.79,1.25c7,1.51,14.87,1.16,20.26,2.55,5.24,1.35,10.58,1.83,14,0,3.82-2,6.69-8.06,6-10-.82-2.3-1.75-3.66-5-5-4.36-1.8-11.94-.56-18-.27C1250.76,314.7,1220.34,326.24,1224.45,325.7Z" transform="translate(-35.63 -30.21)"/><path class="cls-8" d="M1238.62,334a60.84,60.84,0,0,0,9.26,2.78c3.59.69,7.35,2.14,10.13,2.59s5.35,1.19,6.79,2.39c1.6,1.35,2.28,3.89,1.71,4.43s-1.28.95-3,.85c-2.33-.13-5.86-1.85-8.74-3C1250.07,342.26,1236.7,333.14,1238.62,334Z" transform="translate(-35.63 -30.21)"/><path class="cls-8" d="M1199.5,327.5c-5,0,5-1.28,14-5a98.28,98.28,0,0,0,14-7c12.45-7.36,25-8.57,30-9a79.91,79.91,0,0,1,25,2,70.83,70.83,0,0,1,18,6c4.9,2.46,5.66,3.64,14,9a189.66,189.66,0,0,0,17,10c9.28,4.74,15.34,7.84,24,9,6.46.87,16,1,12,1a61.8,61.8,0,0,0-11,3c-6,2.07-10.21,4.81-15,8-8,5.3-7.63,6.53-13,10a50.31,50.31,0,0,1-22,8c-8.88.9-15.62-1.15-25-4a93.07,93.07,0,0,1-17-7c-5.94-3.22-6-4.15-15-10a211,211,0,0,0-19-11,140.11,140.11,0,0,0-18-8C1204.38,329.63,1200.86,327.5,1199.5,327.5Z" transform="translate(-35.63 -30.21)"/><path class="cls-8" d="M1287.5,348.5c-1.93,1.68-2.64,1.86-3,3-1,3,2.51,6.52,3,7a13.52,13.52,0,0,0,14,3c.87-.34,5.54-2.16,7-7,.17-.55,1.33-4.64-1-8-1.52-2.19-3.73-2.92-7-4-3-1-4.43-1.46-6-1C1291.81,342.29,1292,344.54,1287.5,348.5Z" transform="translate(-35.63 -30.21)"/><path class="cls-8" d="M1326.5,346.5a4,4,0,0,1-4-3,3.19,3.19,0,0,1,1-3c1.16-.91,2.75-.4,4,0s2.71.87,3,2C1330.89,344,1328.86,346.43,1326.5,346.5Z" transform="translate(-35.63 -30.21)"/></g></svg>