<svg xmlns="http://www.w3.org/2000/svg" viewBox="0 0 707 393"><defs><style>.cls-1{fill:#b4caf5;}.cls-2{fill:#f2dfa7;}.cls-3{fill:#9cb0d9;}.cls-4{fill:#f2d8c2;}.cls-5{fill:#f5a9a4;}.cls-6{fill:none;stroke:#247524;stroke-miterlimit:10;}.cls-7{fill:#eeaa6e;}</style></defs><g id="Lag_2" data-name="Lag 2"><path class="cls-1" d="M211.82,302.65c-72.46,55-150.57,61.37-173.56,15.8-7.61-15.09-9.89-42.4,1.36-63.42,16-29.81,81.72-64.39,132.76-67.21,68.23-3.76,116.67-14.82,139.05-31.71,14.88-11.23,1.48-2.8-7.86,29.11C292.6,222.69,251.3,272.66,211.82,302.65Z"/><path class="cls-2" d="M186.53,230.37c-22.79,6.4-42.27,1.13-43.45-11.33-.39-4.13,1.68-10.6,6.41-14.46,6.72-5.48,25.37-3.92,38.52-4,17.76-.13,67-7.11,74-9.06,4.68-1.3-28.25,23.7-36.79,26.34C215.74,220.77,199,226.87,186.53,230.37Z"/><path class="cls-3" d="M191.88,284.3c-42.33,34.79-90.76,43.18-96.73,31.38-2.86-5.64-.57-17.62,8.54-28.33C116.63,272.16,163.56,258,192.83,248c39.77-13.69,57.71-25.35,72.79-35.59,10-6.81,3,.49-9.35,13.66C240.26,243.15,216.52,264.06,191.88,284.3Z"/><path class="cls-4" d="M69.86,249.91a18.7,18.7,0,0,0-13,4.94c-.9.82-5.82,5.3-6.07,12.17-.13,3.71,1.15,6.32,3.3,10.69,2.8,5.69,4.24,8.61,7.41,10.35,7.35,4,17.17-2.12,19.89-3.81C85,282,88.5,279.83,90,275.53c2.54-7.57-3.62-15.06-5.28-17.09C82.77,256.13,77.91,250.21,69.86,249.91Z"/><path class="cls-5" d="M121,247.22c-.45-3.54-4.53-5.37-6.09-6.07a9.43,9.43,0,0,0-5.92-1,8.56,8.56,0,0,0-5.75,4.11,7.33,7.33,0,0,0-.82,4.94,7.7,7.7,0,0,0,3.3,4.59,10.24,10.24,0,0,0,8.87,1.47C117.9,254.16,121.45,250.82,121,247.22Z"/><path class="cls-6" d="M274.71,260.45c-72.47,55-150.57,61.38-173.57,15.8-7.61-15.09-9.89-42.4,1.36-63.41,16-29.82,81.72-64.4,132.77-67.22,68.23-3.76,116.66-14.82,139-31.71,14.89-11.23,1.48-2.79-7.86,29.11C355.49,180.49,314.19,230.46,274.71,260.45Z"/><path class="cls-6" d="M249.42,188.17c-22.79,6.4-42.27,1.13-43.46-11.33-.39-4.13,1.68-10.6,6.41-14.46,6.72-5.48,25.38-3.92,38.53-4,17.75-.12,66.94-7.11,74-9.06,4.67-1.3-28.25,23.7-36.8,26.34C278.62,178.57,261.83,184.68,249.42,188.17Z"/><path class="cls-6" d="M254.77,242.1C212.44,276.89,164,285.28,158,273.48c-2.85-5.64-.57-17.62,8.55-28.33,12.93-15.19,59.86-29.31,89.13-39.38,39.77-13.69,57.71-25.35,72.8-35.59,10-6.8,3,.49-9.36,13.66C303.14,201,279.4,221.86,254.77,242.1Z"/><path class="cls-6" d="M132.75,207.71a18.8,18.8,0,0,0-13,4.94c-.89.82-5.82,5.31-6.07,12.18-.13,3.7,1.16,6.31,3.3,10.68,2.8,5.69,4.24,8.62,7.41,10.35,7.35,4,17.18-2.11,19.89-3.8,3.56-2.22,7.1-4.43,8.54-8.73,2.54-7.57-3.61-15.06-5.28-17.09C145.66,213.93,140.79,208,132.75,207.71Z"/><path class="cls-6" d="M183.87,205c-.45-3.54-4.53-5.37-6.09-6.07a9.41,9.41,0,0,0-5.92-1,8.56,8.56,0,0,0-5.75,4.11,7.29,7.29,0,0,0-.81,4.94,7.69,7.69,0,0,0,3.29,4.6,10.3,10.3,0,0,0,8.88,1.47C180.79,212,184.33,208.62,183.87,205Z"/><path class="cls-7" d="M549.69,196.23c4.87-1.12-4.55,2.36-12.52,8a98.29,98.29,0,0,0-12.08,10c-10.48,10-22.44,14-27.22,15.5a79.78,79.78,0,0,1-24.81,3.66,70.63,70.63,0,0,1-18.88-1.81c-5.33-1.3-6.34-2.28-15.67-5.63A190,190,0,0,0,419.7,220c-10.1-2.54-16.71-4.2-25.4-3.39-6.49.6-15.82,2.61-11.92,1.72a62.36,62.36,0,0,0,10.05-5.4c5.41-3.37,8.86-7,12.82-11.16,6.58-6.95,6-8.07,10.43-12.66a50.25,50.25,0,0,1,19.64-12.73c8.45-2.87,15.48-2.38,25.26-1.71a93.23,93.23,0,0,1,18.14,3c6.51,1.81,6.74,2.72,16.86,6.38a208.42,208.42,0,0,0,21,6.46,139.07,139.07,0,0,0,19.34,3.76C544.45,195.24,548.36,196.54,549.69,196.23Z"/><path class="cls-5" d="M525.78,203.58a82.14,82.14,0,0,1-18.59,3c-7.19.11-14.75,2.21-20.32,2.06-5.41-.13-10.73.6-13.64,3.14-3.27,2.85-4.72,9.36-3.61,11.09,1.31,2.06,2.53,3.18,6,3.76,4.65.78,11.76-2.14,17.56-3.77C502.6,220.2,529.66,202.13,525.78,203.58Z"/><path class="cls-2" d="M510.1,198.64a60.49,60.49,0,0,0-9.65-.63c-3.65.13-7.64-.44-10.45-.26s-5.48.05-7.15-.81c-1.87-.95-3.1-3.27-2.67-3.93s1.05-1.2,2.76-1.5c2.3-.39,6.12.49,9.18.94C497.09,193.18,512.17,199.08,510.1,198.64Z"/><path class="cls-4" d="M459.22,195.5c1.5-2.07,2.15-2.41,2.25-3.6.26-3.15-3.91-5.79-4.49-6.14a13.51,13.51,0,0,0-14.32.21c-.77.53-4.92,3.35-5.25,8.39,0,.58-.26,4.82,2.77,7.58,2,1.79,4.28,2,7.72,2.32,3.09.29,4.64.43,6.07-.37C456.41,202.52,455.69,200.38,459.22,195.5Z"/><path class="cls-3" d="M421.66,206.2a4,4,0,0,1,4.57,2,3.17,3.17,0,0,1-.3,3.15c-.93,1.15-2.58,1-3.9.9s-2.83-.24-3.37-1.28C417.93,209.58,419.38,206.79,421.66,206.2Z"/><path class="cls-6" d="M483.68,266.53a82.14,82.14,0,0,1-18.59,3c-7.19.11-14.75,2.21-20.32,2.06-5.41-.13-10.73.6-13.64,3.14-3.27,2.85-4.72,9.36-3.61,11.09,1.32,2.06,2.53,3.18,6,3.76,4.65.78,11.76-2.14,17.56-3.77C460.5,283.15,487.56,265.08,483.68,266.53Z"/><path class="cls-6" d="M468,261.59a60.49,60.49,0,0,0-9.65-.63c-3.65.13-7.64-.44-10.45-.26s-5.48.05-7.15-.81c-1.87-.95-3.1-3.27-2.67-3.93s1.05-1.2,2.76-1.5c2.3-.39,6.12.49,9.18.94C455,256.13,470.07,262,468,261.59Z"/><path class="cls-6" d="M507.59,259.18c4.87-1.12-4.55,2.36-12.52,8a99,99,0,0,0-12.08,10c-10.48,10-22.44,14-27.21,15.5A79.83,79.83,0,0,1,431,296.31a70.63,70.63,0,0,1-18.88-1.81c-5.33-1.3-6.33-2.28-15.67-5.63a190,190,0,0,0-18.81-5.93c-10.1-2.54-16.71-4.2-25.4-3.39-6.49.6-15.82,2.61-11.92,1.72a62.36,62.36,0,0,0,10.05-5.4c5.41-3.37,8.86-7,12.82-11.16,6.58-6.95,6-8.07,10.43-12.66a50.25,50.25,0,0,1,19.64-12.73c8.45-2.87,15.48-2.38,25.26-1.71a93.23,93.23,0,0,1,18.14,3c6.51,1.81,6.74,2.72,16.86,6.38a208.42,208.42,0,0,0,21,6.46,139.07,139.07,0,0,0,19.34,3.76C502.35,258.19,506.26,259.49,507.59,259.18Z"/><path class="cls-6" d="M417.12,258.45c1.5-2.07,2.15-2.41,2.25-3.6.26-3.15-3.91-5.79-4.49-6.14a13.51,13.51,0,0,0-14.32.21c-.77.53-4.92,3.35-5.25,8.39,0,.58-.25,4.82,2.77,7.58,2,1.79,4.28,2,7.72,2.32,3.09.29,4.64.43,6.07-.37C414.31,265.47,413.59,263.33,417.12,258.45Z"/><path class="cls-6" d="M379.56,269.15a4,4,0,0,1,4.57,2,3.17,3.17,0,0,1-.3,3.15c-.93,1.15-2.58,1-3.9.9s-2.83-.24-3.37-1.28C375.83,272.53,377.28,269.74,379.56,269.15Z"/><path class="cls-5" d="M262.4,67c-12.3,16.82-47.18,28.85-56.46,6.2-1.29-3.15-2.22-10-.3-16.33a30,30,0,0,1,6.74-11.3c8.26-8.43,28-4.5,43.28-.21,12.64,3.55,17.89-12,18.85-14.22.72-1.62-2,13.73-2.64,17.33C271,53.33,265.25,63.08,262.4,67Z"/><path class="cls-1" d="M262.88,52.54a22.73,22.73,0,0,1-5.48,4,34.05,34.05,0,0,1-6.25,2.1,33.43,33.43,0,0,0-5.05,1.54,9.57,9.57,0,0,0-3.94,2.54,6.27,6.27,0,0,0-1.7,4.52,3.79,3.79,0,0,0,1,2.52c1.26,1.13,3.28.52,5,0a20.11,20.11,0,0,0,6.33-3.63A32.33,32.33,0,0,0,258,61.48C261.38,57.65,261.94,53.71,262.88,52.54Z"/><path class="cls-2" d="M228.79,61.3a6.85,6.85,0,0,0-.87-5.6,5.29,5.29,0,0,0-3.09-2.34,5.58,5.58,0,0,0-4.45,1.28c-1,.69-3,2.11-3.16,4.43-.15,3,3.12,4.9,3.52,5.14.71.4,2.94,1.69,5.23.61A5.72,5.72,0,0,0,228.79,61.3Z"/><path class="cls-6" d="M307.77,87.64c-12.3,16.82-47.18,28.85-56.46,6.2-1.3-3.15-2.23-10-.3-16.33a29.87,29.87,0,0,1,6.74-11.3c8.26-8.43,28-4.5,43.28-.21,12.64,3.55,17.89-12,18.85-14.22.72-1.62-2,13.73-2.65,17.33C316.39,74,310.62,83.74,307.77,87.64Z"/><path class="cls-6" d="M308.24,73.2a22.2,22.2,0,0,1-5.47,4,34.33,34.33,0,0,1-6.25,2.1,32.72,32.72,0,0,0-5,1.54,9.54,9.54,0,0,0-3.94,2.54,6.27,6.27,0,0,0-1.7,4.52,3.75,3.75,0,0,0,1,2.52c1.27,1.13,3.28.52,5,0a20.11,20.11,0,0,0,6.34-3.63,32.26,32.26,0,0,0,5.21-4.61C306.75,78.31,307.3,74.37,308.24,73.2Z"/><path class="cls-6" d="M274.16,82a6.89,6.89,0,0,0-.87-5.6A5.36,5.36,0,0,0,270.2,74a5.61,5.61,0,0,0-4.46,1.28c-1,.69-3.05,2.11-3.16,4.43-.14,3,3.13,4.9,3.53,5.14.7.4,2.94,1.69,5.23.61A5.72,5.72,0,0,0,274.16,82Z"/></g></svg>