<svg xmlns="http://www.w3.org/2000/svg" viewBox="0 0 707 393"><defs><style>.cls-1{fill:#f5a9a4;}.cls-2{fill:#eeaa6e;}.cls-3{fill:#f2dfa7;}.cls-4,.cls-7{fill:#f2d8c2;}.cls-4{stroke:#f2d8c2;}.cls-4,.cls-6{stroke-miterlimit:10;}.cls-5{fill:#b4caf5;}.cls-6{fill:none;stroke:#247524;}.cls-8{fill:#9cb0d9;}</style></defs><g id="Lag_2" data-name="Lag 2"><path class="cls-1" d="M460.88,303.19h0a30.74,30.74,0,0,0-22.72-16.56l-5.15-.8a72.19,72.19,0,0,0-12.28-.87L397,285.3c-25.91.37-48.73,1.46-70.8-12.1l-18.84-11.42c-17-10.46-27.84-30.46-36.5-48.47L257,184.41a121.39,121.39,0,0,0-34.23-39.67l-18.16-13.57,27.28,1.13q5.25.22,10.5-.07l89.84-4.93c6-.18,13.67-.25,21.66,0a142.3,142.3,0,0,1,48.89,10.39l9.46,3.82c20.67,10.14,33,19,44.67,35.26l3.63,5.23c14.29,22.16,16.44,50.06,11.31,75.91Z"/><path class="cls-2" d="M241.64,143c-2.92-.35,14.06,8.26,25.43,26.82,3.76,6.14,2.72,5.9,13.12,26.83,9.44,19,11.73,22.08,15.63,24.83,6.68,4.71,18.95,9.09,27.18,3.23,8.82-6.27,7.24-20.21,7-22.13-1.4-12.28-9.94-20.21-17.65-27.37-8.74-8.1-16.69-12.15-32.23-19.91C268.32,149.38,250.7,144.06,241.64,143Z"/><path class="cls-3" d="M308.12,148.5c8.3,2,26.8-3.75,39.43-2.38s22.41,6.72,21.84,11.93-11.26,8.33-23.89,7S302.88,147.24,308.12,148.5Z"/><path class="cls-4" d="M457.71,274.35c-1.37-5.27-2.85-18.42-10.24-28.83-9.05-12.76-24.63-23.25-31-32.89-6-9-14-23.33-12.5-30.52,1.32-6.48,11.7-8.16,15.82-9.37,13.57-4,22.63,4.26,30.17,24.38C457,215.87,459.85,282.58,457.71,274.35Z"/><path class="cls-5" d="M390.08,260.91c1.46-1.43,3.25-3.18,3.25-5.52,0-1.77-1-2.36-2.84-5.66-2.31-4.14-1.53-4.71-3-6.64-2.7-3.57-7.39-4.28-9.76-4.64-2.95-.45-7.33-1.11-10.89,1.57-3.32,2.51-4.05,6.53-4.65,9.77a13.76,13.76,0,0,0,0,7.07,12.4,12.4,0,0,0,6.09,7.2c1.5.71,3.08.85,6.23,1.12a23.74,23.74,0,0,0,7.07,0A16.31,16.31,0,0,0,390.08,260.91Z"/><path class="cls-2" d="M426.14,258.71c-1.57,1.25-4.5,2.41-6.93,1a5.83,5.83,0,0,1-2.55-3.67,6.75,6.75,0,0,1,.42-4.11c.43-1.19,1.06-2.91,2.54-3.4.75-.24,1.54,0,3.11.56,1.94.67,3.25,1.12,4.39,2.4a4.87,4.87,0,0,1,1.42,2.82C428.72,256.67,426.58,258.37,426.14,258.71Z"/><path class="cls-6" d="M288.77,83.7c-2.92-.35,14.06,8.26,25.43,26.83,3.76,6.13,2.72,5.89,13.12,26.82,9.44,19,11.73,22.08,15.63,24.83,6.68,4.71,18.95,9.09,27.18,3.24,8.82-6.28,7.24-20.21,7-22.14-1.4-12.27-9.94-20.21-17.65-27.36-8.73-8.11-16.69-12.16-32.23-19.92C315.45,90.11,297.83,84.78,288.77,83.7Z"/><path class="cls-6" d="M355.25,89.22c8.3,2,26.81-3.75,39.43-2.38s22.41,6.72,21.84,11.93-11.26,8.34-23.89,7S350,88,355.25,89.22Z"/><path class="cls-6" d="M504.84,215.07c-1.37-5.26-2.85-18.42-10.24-28.83-9.05-12.75-24.63-23.24-31-32.89-6-9-14-23.33-12.5-30.52,1.32-6.48,11.7-8.16,15.82-9.36,13.57-4,22.63,4.25,30.17,24.37C504.08,156.59,507,223.3,504.84,215.07Z"/><path class="cls-6" d="M437.22,201.63c1.45-1.43,3.24-3.18,3.24-5.52,0-1.77-1-2.36-2.84-5.65-2.3-4.15-1.53-4.72-3-6.64-2.7-3.58-7.39-4.29-9.76-4.65-2.95-.45-7.33-1.11-10.89,1.58-3.32,2.51-4.05,6.52-4.65,9.76a13.91,13.91,0,0,0,0,7.08,12.45,12.45,0,0,0,6.09,7.2c1.5.7,3.08.84,6.23,1.12a24,24,0,0,0,7.07,0A16.36,16.36,0,0,0,437.22,201.63Z"/><path class="cls-6" d="M473.27,199.44c-1.57,1.24-4.5,2.4-6.92,1a5.81,5.81,0,0,1-2.56-3.67,6.71,6.71,0,0,1,.42-4.1c.43-1.19,1.06-2.92,2.54-3.4.75-.25,1.54,0,3.11.56,1.94.66,3.25,1.11,4.39,2.39a4.9,4.9,0,0,1,1.42,2.83C475.86,197.39,473.71,199.09,473.27,199.44Z"/><path class="cls-6" d="M508,243.91h0a30.74,30.74,0,0,0-22.72-16.56l-5.15-.8a73.22,73.22,0,0,0-12.28-.86l-23.74.33c-25.91.37-48.73,1.46-70.8-12.1L354.49,202.5c-17-10.45-27.84-30.45-36.5-48.46l-13.9-28.91a121.53,121.53,0,0,0-34.24-39.67L251.69,71.9,279,73q5.25.21,10.5-.07L379.31,68c6-.18,13.67-.26,21.66,0A142.06,142.06,0,0,1,449.86,78.4l9.46,3.83c20.67,10.14,33,19,44.67,35.26l3.64,5.23c14.28,22.15,16.43,50.05,11.3,75.91Z"/><path class="cls-2" d="M120.28,222c-6.65-5.2-13.51-6.15-18.79-6.88a48.76,48.76,0,0,0-13,0,49.3,49.3,0,0,0-18.14,6.19A38.12,38.12,0,0,0,51.6,245.34a43.54,43.54,0,0,0-1.29,10.31c-.17,5.25-.33,10.07,1.94,15.12,1.6,3.56,3.66,5.56,7.13,8.93a47.69,47.69,0,0,0,12.31,8.94c7.07,3.53,13.07,4.19,18.79,4.81a54,54,0,0,0,15.55,0c5.81-.94,13.15-2.12,19.43-8.25a32,32,0,0,0,7.78-13.06,42.5,42.5,0,0,0,1.94-16.49,49.59,49.59,0,0,0-3.24-16.49C130.36,235.07,127.48,227.61,120.28,222Z"/><path class="cls-7" d="M122.25,247.54a63.6,63.6,0,0,1-9.74,12.23c-4.35,4-12,7.3-16.2,8.94s-8.82,2.8-10.37,6.18c-1.74,3.82,2.16,9.05,4.54,10.31,2.59,1.38,7,1.14,10.06.66,4-.64,11.52-3.18,14.56-6.84C120,273.06,124,244.69,122.25,247.54Z"/><path class="cls-3" d="M110.56,226.79a16.43,16.43,0,0,0-5.83-4.13c-3.61-1.47-6.68-1.09-9.72-.68-4,.53-10.07,1.36-13,6.18a7.71,7.71,0,0,0-1.3,4.81c.36,3.31,3.39,5.28,5.83,6.87,5.37,3.51,10.62,3.87,14.25,4.13a24.55,24.55,0,0,0,7.78-.69c3.63-.92,4.7-2.09,5.18-2.75a7.41,7.41,0,0,0,1.3-4.12C115.33,231.84,112.06,228.37,110.56,226.79Z"/><path class="cls-5" d="M107.32,230.91a4.59,4.59,0,0,1-.64,2.06,3.25,3.25,0,0,1-2.6,1.38,3.35,3.35,0,0,1-3.24-2.75c-.06-.89.49-1.63,1.3-2.75a4.37,4.37,0,0,1,1.3-1.38c1.25-.71,3.21-.46,3.88.69C107.69,228.79,107.56,229.5,107.32,230.91Z"/><path class="cls-8" d="M103.44,273.52c-2-1.78-5-.93-5.84-.69-1.26.36-4.28,1.23-4.53,3.44-.21,1.8,1.52,3.75,3.24,4.12,1,.21,1.15-.25,5.18-2.06,2.23-1,3-1.25,3.24-2.06C105.05,275,103.56,273.63,103.44,273.52Z"/><path class="cls-6" d="M158,211.87a63.35,63.35,0,0,1-9.75,12.23c-4.34,4-12,7.3-16.19,8.94s-8.83,2.8-10.37,6.18c-1.74,3.82,2.16,9.05,4.54,10.31,2.59,1.38,7,1.14,10,.66,4.05-.64,11.53-3.18,14.57-6.84C155.76,237.39,159.73,209,158,211.87Z"/><path class="cls-6" d="M156,186.31c-6.65-5.21-13.51-6.15-18.79-6.88a48.78,48.78,0,0,0-13,0,49.3,49.3,0,0,0-18.14,6.19,38.12,38.12,0,0,0-18.79,24A43.54,43.54,0,0,0,86,220c-.17,5.25-.33,10.07,1.94,15.12,1.6,3.56,3.66,5.56,7.13,8.93A47.69,47.69,0,0,0,107.42,253c7.07,3.53,13.07,4.18,18.79,4.81a54,54,0,0,0,15.55,0c5.81-.94,13.15-2.12,19.43-8.25A32,32,0,0,0,169,236.47,42.5,42.5,0,0,0,170.91,220a49.86,49.86,0,0,0-3.24-16.49C166.09,199.39,163.21,191.94,156,186.31Z"/><path class="cls-6" d="M146.29,191.12a16.43,16.43,0,0,0-5.83-4.13c-3.61-1.47-6.68-1.09-9.72-.68-4,.53-10.07,1.36-13,6.18a7.72,7.72,0,0,0-1.29,4.81c.36,3.31,3.39,5.28,5.83,6.87,5.37,3.5,10.62,3.87,14.25,4.13a24.55,24.55,0,0,0,7.78-.69c3.63-.92,4.7-2.09,5.18-2.75a7.41,7.41,0,0,0,1.3-4.12C151.06,196.17,147.78,192.7,146.29,191.12Z"/><path class="cls-6" d="M143.05,195.24a4.59,4.59,0,0,1-.65,2.06,3.21,3.21,0,0,1-2.59,1.38,3.35,3.35,0,0,1-3.24-2.75c-.06-.89.48-1.64,1.3-2.75a4.47,4.47,0,0,1,1.29-1.38c1.25-.71,3.22-.46,3.89.69C143.42,193.12,143.29,193.83,143.05,195.24Z"/><path class="cls-6" d="M139.16,237.85c-2-1.79-5-.93-5.83-.69-1.26.36-4.28,1.23-4.53,3.44-.21,1.8,1.52,3.75,3.24,4.12,1,.21,1.15-.25,5.18-2.06,2.23-1,3-1.25,3.24-2.06C140.78,239.32,139.29,238,139.16,237.85Z"/><path class="cls-8" d="M204.42,289.62c1.41,2.15,8.29,9.14,13.34,12.43,5.87,3.84,11.34,3.74,16.05,6.5s10,10.64,10.62,14.5c.74,4.33-.78,9.53-2.9,10.56a12.14,12.14,0,0,1-9.39.64,36.67,36.67,0,0,1-14-9.89C212.16,317,202.21,286.26,204.42,289.62Z"/><path class="cls-6" d="M279.9,283.45c1.41,2.15,8.29,9.14,13.33,12.44,5.88,3.84,11.35,3.73,16.06,6.5s10,10.63,10.62,14.5c.74,4.33-.78,9.53-2.9,10.56a12.14,12.14,0,0,1-9.39.63,36.38,36.38,0,0,1-14-9.89C287.64,310.85,277.69,280.1,279.9,283.45Z"/></g></svg>